<svg width="34" height="35" viewBox="0 0 34 35" fill="none" xmlns="http://www.w3.org/2000/svg">
<circle cx="17" cy="17.7271" r="16.625" transform="rotate(0.421504 17 17.7271)" fill="#1AD0D1"/>
<g clip-path="url(#clip0_1_104)">
<path d="M22.3712 9.50538C21.9148 9.06947 21.3282 8.85746 20.7355 8.8531C20.0682 8.84819 19.3924 9.10631 18.8863 9.60568C18.7664 9.72383 18.5731 9.72193 18.4551 9.60185C17.9564 9.09574 17.2845 8.82771 16.6173 8.8228C16.0245 8.81844 15.4349 9.0218 14.9721 9.45095C13.9544 10.3949 13.9248 11.9864 14.8922 12.9681L18.0995 16.223C18.386 16.5137 18.8538 16.5171 19.1445 16.2307L22.3994 13.0233C23.381 12.056 23.375 10.4642 22.3712 9.50538Z" fill="white"/>
<path d="M25.988 18.7151C25.414 18.3199 24.7334 18.4256 24.1289 18.7687C23.6137 19.061 21.0116 21.232 20.2537 21.8673C20.1188 21.9804 19.9496 22.0407 19.7736 22.0395L16.6442 22.0171C16.4859 22.0159 16.3158 21.8366 16.317 21.679C16.3183 21.4938 16.4809 21.3506 16.6491 21.3518L18.7306 21.3671C19.4591 21.3725 20.2782 20.9037 20.2844 20.0598C20.291 19.1631 19.4785 18.7351 18.75 18.7298C17.6099 18.7214 17.298 18.7234 17.2479 18.7238C17.2426 18.7239 17.2374 18.7239 17.2321 18.7239C16.7283 18.7198 16.2182 18.685 15.8262 18.4715C15.3008 18.1973 14.694 18.0399 14.0452 18.0351C12.956 18.0271 11.9776 18.4544 11.304 19.1346L8.26221 22.0857C7.96772 22.3714 7.96243 22.8424 8.25042 23.1347L11.1361 26.0631C11.4225 26.3537 11.8903 26.3572 12.181 26.0708L12.7651 25.4952C12.9046 25.3577 13.0931 25.2812 13.2891 25.2826L19.6602 25.3295C20.3248 25.3344 20.9681 25.0952 21.4678 24.6577L26.0262 19.6194C26.3043 19.3761 26.2918 18.925 25.988 18.7151Z" fill="white"/>
</g>
<defs>
<clipPath id="clip0_1_104">
<rect x="7.83203" y="8.42334" width="18.4722" height="18.4722" transform="rotate(0.421504 7.83203 8.42334)" fill="white"/>
</clipPath>
</defs>
</svg>
