<svg width="59" height="56" viewBox="0 0 59 56" fill="none" xmlns="http://www.w3.org/2000/svg">
<ellipse cx="29.6124" cy="27.9302" rx="28.8255" ry="27.0411" transform="rotate(0.421504 29.6124 27.9302)" fill="#1AD0D1"/>
<g clip-path="url(#clip0_1_201)">
<path fill-rule="evenodd" clip-rule="evenodd" d="M23.197 20.6194C24.5321 22.3901 26.2431 23.8715 28.218 24.9666C28.642 25.219 29.1306 25.3544 29.6299 25.3581C30.1292 25.3618 30.6198 25.2335 31.0475 24.9874C33.0383 23.9215 34.7709 22.4654 36.1319 20.7145C38.2678 17.874 37.8725 14.2384 34.5427 13.1181C33.6836 12.8718 32.7679 12.8725 31.9095 13.12C31.0512 13.3676 30.2881 13.8512 29.7154 14.5105C27.2418 11.648 22.4228 12.757 21.9533 16.4342C21.7221 17.1659 22.2353 19.4413 23.197 20.6194ZM18.6239 28.7397C18.2145 28.9646 17.8448 29.25 17.5285 29.5852C17.4417 27.8426 17.776 26.1047 18.5053 24.5061C19.2347 22.9076 20.3395 21.4914 21.7341 20.3674C21.8949 20.6569 22.0979 20.9797 22.3168 21.295C21.2039 22.2302 20.3023 23.3728 19.6674 24.6529C19.0324 25.9329 18.6773 27.3236 18.6239 28.7397ZM20.3179 35.9469C19.7621 35.8449 19.2396 35.6176 18.7938 35.284C16.1395 33.3732 17.6385 29.1431 21.0113 29.2025C21.5772 29.2067 22.1341 29.3397 22.6356 29.5908C23.1372 29.8418 23.5689 30.2035 23.8951 30.6459C24.2213 31.0883 24.4325 31.5986 24.5111 32.1345C24.5898 32.6704 24.5336 33.2164 24.3474 33.7272C24.1611 34.238 23.8501 34.6989 23.4401 35.0717C23.0301 35.4444 22.533 35.7183 21.99 35.8705C21.447 36.0227 20.8738 36.0489 20.3179 35.9469ZM38.1912 29.3289C33.4712 29.4585 33.4421 35.9418 38.1412 36.1349C42.8434 36.0316 42.9078 29.5117 38.1912 29.3289ZM26.008 33.7912C26.1335 38.2907 32.936 38.3389 33.1267 33.8434C32.9939 29.3315 26.2068 29.2819 26.008 33.7912ZM32.829 37.0244C31.9441 37.8386 30.761 38.2893 29.5325 38.2803C28.304 38.2712 27.1277 37.8031 26.2549 36.976C24.6525 37.887 22.5405 39.946 23.7205 41.8528C23.9301 42.1794 24.2236 42.4494 24.5731 42.6371C24.9225 42.8248 25.3163 42.9239 25.717 42.925L33.2848 42.9807C33.6855 42.9854 34.0807 42.8921 34.4329 42.7096C34.785 42.5271 35.0825 42.2615 35.2969 41.938C36.5072 40.0455 34.4181 37.9598 32.829 37.0244ZM44.0509 38.6904C43.4899 37.5408 42.5767 36.5812 41.4323 35.939C40.9974 36.3484 40.4819 36.6713 39.9157 36.8892C39.3494 37.1071 38.7435 37.2155 38.133 37.2083C36.9043 37.1966 35.7288 36.7256 34.8582 35.896C34.3666 36.1118 34.62 36.2905 34.9276 36.5077C35.0793 36.6147 35.2441 36.731 35.3395 36.8657C36.3951 37.9084 37.3903 39.2964 37.3598 40.799C37.3905 40.9406 37.3423 41.1378 37.2967 41.3243C37.222 41.6301 37.1543 41.907 37.453 41.8625L41.8882 41.8951C42.2848 41.8945 42.6749 41.7991 43.023 41.6175C43.371 41.4358 43.6659 41.1738 43.8809 40.8553C44.0959 40.5368 44.224 40.1718 44.2537 39.7937C44.2834 39.4156 44.2137 39.0363 44.0509 38.6904ZM23.7522 36.7805C24.0061 36.5403 24.278 36.3181 24.5655 36.1155C24.3482 35.723 24.2069 35.8443 23.9912 36.0292C23.9387 36.0743 23.8819 36.123 23.8184 36.1691C22.9144 36.8205 21.7947 37.1381 20.665 37.0637C19.5352 36.9894 18.4711 36.5279 17.668 35.7641C16.0663 36.6809 13.9555 38.7419 15.1392 40.6463C15.3494 40.9708 15.6424 41.239 15.9907 41.4256C16.3389 41.6122 16.7311 41.7112 17.1302 41.7131L21.5653 41.7457C21.8634 41.7965 21.7995 41.516 21.7293 41.208C21.6866 41.0207 21.6416 40.8231 21.6743 40.6837C21.6623 39.177 22.681 37.8074 23.7522 36.7805ZM39.6003 24.7961C38.9833 23.5059 38.0974 22.3494 36.9969 21.3975C37.2165 21.1038 37.4193 20.7989 37.6044 20.4842C40.3342 22.6713 42.0223 26.5877 41.6686 29.7251C41.3378 29.416 40.9749 29.14 40.5855 28.9012C40.5526 27.4832 40.2173 26.0863 39.6003 24.7961Z" fill="white"/>
</g>
<defs>
<clipPath id="clip0_1_201">
<rect width="32.0295" height="30.0457" fill="white" transform="translate(13.709 12.7899) rotate(0.421504)"/>
</clipPath>
</defs>
</svg>
